<?xml version="1.0" encoding="UTF-8"?>
<svg width="69px" height="78px" viewBox="0 0 69 78" version="1.1" xmlns="http://www.w3.org/2000/svg" xmlns:xlink="http://www.w3.org/1999/xlink">
    <!-- Generator: Sketch 58 (84663) - https://sketch.com -->
    <title>new_icons/ai@2x</title>
    <desc>Created with Sketch.</desc>
    <g id="Home" stroke="none" stroke-width="1" fill="none" fill-rule="evenodd" stroke-linecap="round">
        <g id="Home-Alt-2" transform="translate(-649.000000, -652.000000)" stroke="#FB3A52">
            <g id="new_icons/ai" transform="translate(628.000000, 636.000000)">
                <g id="Group-33" transform="translate(22.500000, 18.000000)">
                    <path d="M32.67285,0.0018 C50.71485,0.0018 65.34435,14.6313 65.34435,32.6718 C65.34435,41.6583 61.71585,49.7928 55.84635,55.6983 L55.84635,74.5953 L7.61535,74.5953 L7.61535,53.6358 L-0.00015,53.6358 L-0.00015,32.6718" id="Stroke-1" stroke-width="2.4" stroke-linejoin="round"></path>
                    <path d="M0.0003,32.67225 C0.0003,14.61375 14.6133,0.00075 32.6733,0.00075" id="Stroke-3" stroke-width="2.4" stroke-linejoin="round"></path>
                    <path d="M23.46705,72.53055 L23.46705,36.99405" id="Stroke-5" stroke-width="2.4"></path>
                    <path d="M31.3677,73.7772 L31.3677,38.5527" id="Stroke-7" stroke-width="2.4"></path>
                    <path d="M31.3677,38.5521 L38.0757,31.8426" id="Stroke-9" stroke-width="2.4"></path>
                    <path d="M38.07525,31.84305 L38.07525,21.46005" id="Stroke-11" stroke-width="2.4"></path>
                    <path d="M38.07525,74.59455 L38.07525,51.77205" id="Stroke-13" stroke-width="2.4"></path>
                    <path d="M38.07525,51.77235 L48.75,41.25" id="Stroke-15" stroke-width="2.4"></path>
                    <path d="M23.46705,36.99345 L17.4133301,36.99345 M5.06835938,36.99345 L0.19305,36.99345" id="Shape" stroke-width="2.4" stroke-linejoin="round"></path>
                    <path d="M6.23235,37.011 C6.23235,40.128 8.75685,42.6525 11.87235,42.6525 C14.98935,42.6525 17.51385,40.128 17.51385,37.011 C17.51385,33.894 14.98935,31.3695 11.87235,31.3695 C8.75685,31.3695 6.23235,33.894 6.23235,37.011 Z" id="Stroke-21" stroke-width="2.4" stroke-linejoin="round"></path>
                    <path d="M32.2239,15.60675 C32.2239,18.84075 34.8429,21.45975 38.0754,21.45975 C41.3094,21.45975 43.9269,18.84075 43.9269,15.60675 C43.9269,12.37425 41.3094,9.75525 38.0754,9.75525 C34.8429,9.75525 32.2239,12.37425 32.2239,15.60675 Z" id="Stroke-25" stroke-width="2.4" stroke-linejoin="round"></path>
                    <path d="M46.61445,37.011 C46.61445,40.128 49.13895,42.6525 52.25445,42.6525 C55.37145,42.6525 57.89595,40.128 57.89595,37.011 C57.89595,33.894 55.37145,31.3695 52.25445,31.3695 C49.13895,31.3695 46.61445,33.894 46.61445,37.011 Z" id="Stroke-29" stroke-width="2.4" stroke-linejoin="round"></path>
                    <path d="M7.6152,60.19365 L16.8417,60.19365" id="Stroke-31" stroke-width="2.4"></path>
                </g>
            </g>
        </g>
    </g>
</svg>