<?xml version="1.0" encoding="UTF-8"?>
<svg width="32px" height="32px" viewBox="0 0 32 32" version="1.1" xmlns="http://www.w3.org/2000/svg" xmlns:xlink="http://www.w3.org/1999/xlink">
    <!-- Generator: Sketch 58 (84663) - https://sketch.com -->
    <title>be</title>
    <desc>Created with Sketch.</desc>
    <g id="Symbols" stroke="none" stroke-width="1" fill="none" fill-rule="evenodd">
        <g id="Footer/Desktop-Light-ALT" transform="translate(-1085.000000, -410.000000)" fill="#012133">
            <path d="M1108.07527,422.657667 C1104.01836,422.657667 1103.0145,425.908057 1103.0145,427.967257 C1103.0145,430.027887 1103.58078,433.644358 1108.33696,433.644358 C1113.09314,433.644358 1112.83002,430.242387 1112.83002,430.242387 L1110.25602,430.242387 C1109.68974,431.663808 1108.2054,431.400688 1108.2054,431.400688 C1105.89452,431.400688 1105.76296,428.547837 1105.76296,428.547837 L1112.83002,428.547837 C1113.00448,425.617767 1111.95915,422.657667 1108.07527,422.657667 L1108.07527,422.657667 Z M1105.89452,426.914777 C1105.89452,426.914777 1106.19911,424.855577 1108.09672,424.855577 C1109.99433,424.855577 1110.30035,426.914777 1110.30035,426.914777 L1105.89452,426.914777 Z M1110.34468,420.006447 L1105.33253,420.006447 L1105.33253,421.450747 L1110.34468,421.450747 L1110.34468,420.006447 L1110.34468,420.006447 Z M1099.40375,425.929507 C1101.41433,424.988567 1101.32281,422.774927 1101.32281,422.774927 C1101.27705,419.242827 1098.12533,419.29 1098.12533,419.29 L1089.95002,419.29 L1089.95002,433.700128 L1098.12533,433.700128 C1098.12533,433.700128 1102.05354,433.511368 1101.96202,429.650367 C1101.8705,425.787937 1099.40375,425.929507 1099.40375,425.929507 Z M1093.219,421.816827 L1096.75539,421.812537 C1096.75539,421.812537 1098.11961,421.711007 1098.11961,423.501367 C1098.11961,425.290297 1096.76683,425.185907 1096.76683,425.185907 L1093.219,425.185907 L1093.219,421.816827 Z M1096.84691,431.071788 L1093.219,431.083228 L1093.219,427.714147 L1096.84262,427.714147 C1096.84262,427.714147 1098.93614,427.608327 1098.93614,429.398687 C1098.93614,431.189048 1096.84691,431.071788 1096.84691,431.071788 L1096.84691,431.071788 Z" id="Shape"></path>
        </g>
    </g>
</svg>