<?xml version="1.0" encoding="UTF-8"?>
<svg width="32px" height="32px" viewBox="0 0 32 32" version="1.1" xmlns="http://www.w3.org/2000/svg" xmlns:xlink="http://www.w3.org/1999/xlink">
    <!-- Generator: Sketch 58 (84663) - https://sketch.com -->
    <title>dribbble</title>
    <desc>Created with Sketch.</desc>
    <g id="Symbols" stroke="none" stroke-width="1" fill="none" fill-rule="evenodd">
        <g id="Footer/Desktop-Light-ALT" transform="translate(-1024.000000, -410.000000)">
            <rect id="Rectangle-Copy-6" fill="#FFFFFF" transform="translate(652.000000, 256.000000) scale(1, -1) translate(-652.000000, -256.000000) " x="12" y="10" width="1280" height="492"></rect>
            <rect id="Rectangle-Copy-7" fill="#FFFFFF" transform="translate(727.000000, 256.000000) scale(1, -1) translate(-727.000000, -256.000000) " x="87" y="10" width="1280" height="492"></rect>
            <path d="M1039.85292,415 C1033.54662,415.024407 1028.43437,420.178127 1028.46001,426.484428 C1028.48585,432.793588 1033.63814,437.904409 1039.9473,437.878765 C1046.2536,437.852929 1051.36585,432.700638 1051.34021,426.392908 C1051.31437,420.085177 1046.16208,414.974357 1039.85292,415 Z M1047.43907,420.245337 C1048.85461,421.957137 1049.64181,424.101754 1049.66987,426.322838 C1049.34812,426.255628 1046.11489,425.613558 1042.8645,426.035408 C1042.79586,425.868098 1042.72436,425.700788 1042.65286,425.532048 C1042.44677,425.05553 1042.22839,424.584426 1041.99792,424.119208 C1045.60581,422.630577 1047.23315,420.524187 1047.43907,420.245337 L1047.43907,420.245337 Z M1039.86007,416.683207 C1042.24863,416.670788 1044.55815,417.538196 1046.34798,419.119927 C1046.17352,419.370177 1044.71063,421.353587 1041.24145,422.669187 C1040.14331,420.689751 1038.9176,418.783829 1037.57207,416.963487 C1038.32094,416.779755 1039.08899,416.685668 1039.86007,416.683207 L1039.86007,416.683207 Z M1035.71021,417.627007 C1037.02486,419.440001 1038.24208,421.321683 1039.35671,423.264067 C1034.79072,424.496728 1030.76527,424.495298 1030.32626,424.489578 C1030.94991,421.486403 1032.94177,418.947509 1035.71021,417.627007 L1035.71021,417.627007 Z M1030.12892,426.493008 C1030.12892,426.392908 1030.13035,426.292808 1030.13321,426.194138 C1030.56078,426.201288 1035.29551,426.244188 1040.16895,424.762708 C1040.45209,425.310398 1040.72093,425.863808 1040.96975,426.418648 C1040.84014,426.455191 1040.71141,426.494765 1040.58365,426.537338 C1035.55148,428.186128 1032.88739,432.636288 1032.66717,433.015238 C1031.04186,431.23096 1030.13727,428.906557 1030.12892,426.493008 L1030.12892,426.493008 Z M1039.94015,436.225588 C1037.76638,436.237021 1035.65159,435.519001 1033.93415,434.186408 C1034.10861,433.827478 1036.07057,429.996508 1041.57464,428.054568 L1041.63899,428.031688 C1043.02609,431.590958 1043.60524,434.576798 1043.75396,435.433368 C1042.54914,435.951967 1041.25184,436.221446 1039.94015,436.225588 L1039.94015,436.225588 Z M1045.39274,434.532468 C1045.28978,433.939018 1044.75782,431.079018 1043.4651,427.572658 C1046.5253,427.070728 1049.21942,427.862948 1049.55404,427.965908 C1049.13241,430.635172 1047.62647,433.011549 1045.39274,434.532468 L1045.39274,434.532468 Z" id="Shape" fill="#012133"></path>
        </g>
    </g>
</svg>