<?xml version="1.0" encoding="UTF-8"?>
<svg width="32px" height="32px" viewBox="0 0 32 32" version="1.1" xmlns="http://www.w3.org/2000/svg" xmlns:xlink="http://www.w3.org/1999/xlink">
    <!-- Generator: Sketch 58 (84663) - https://sketch.com -->
    <title>linkedin</title>
    <desc>Created with Sketch.</desc>
    <g id="Symbols" stroke="none" stroke-width="1" fill="none" fill-rule="evenodd">
        <g id="Footer/Desktop-Light-ALT" transform="translate(-962.000000, -410.000000)">
            <rect id="Rectangle-Copy-6" fill="#FFFFFF" transform="translate(652.000000, 256.000000) scale(1, -1) translate(-652.000000, -256.000000) " x="12" y="10" width="1280" height="492"></rect>
            <rect id="Rectangle-Copy-7" fill="#FFFFFF" transform="translate(727.000000, 256.000000) scale(1, -1) translate(-727.000000, -256.000000) " x="87" y="10" width="1280" height="492"></rect>
            <path d="M986.99001,415 L969.830009,415 C968.250474,415 966.970009,416.280466 966.970009,417.86 L966.970009,435.020002 C966.970009,436.599536 968.250474,437.880002 969.830009,437.880002 L986.99001,437.880002 C988.569545,437.880002 989.85001,436.599536 989.85001,435.020002 L989.85001,417.86 C989.85001,416.280466 988.569545,415 986.99001,415 Z M974.596199,432.160001 L971.736199,432.160001 L971.736199,423.580001 L974.596199,423.580001 L974.596199,432.160001 Z M973.166199,422.627621 C972.375642,422.626831 971.735409,421.985317 971.736198,421.19476 C971.736989,420.404203 972.378502,419.763971 973.169059,419.76476 C973.68046,419.765271 974.152741,420.038572 974.407999,420.481714 C974.663257,420.924855 974.662712,421.470513 974.406569,421.913144 C974.150426,422.355775 973.6776,422.628131 973.166199,422.627621 L973.166199,422.627621 Z M985.08382,432.160001 L982.22239,432.160001 L982.22239,427.393811 C982.22239,426.332751 981.90779,425.806511 980.92252,425.806511 C979.32235,425.806511 979.36382,427.393811 979.36382,427.393811 L979.36382,432.160001 L976.503819,432.160001 L976.503819,423.580001 L979.36382,423.580001 L979.36382,425.010001 C979.36382,425.010001 979.89578,423.580001 982.22239,423.580001 C984.01561,423.580001 985.08382,424.968531 985.08382,427.393811 L985.08382,432.160001 Z" id="Shape" fill="#012133"></path>
        </g>
    </g>
</svg>