<svg height="86" viewBox="0 0 76 86" width="76" xmlns="http://www.w3.org/2000/svg"><g style="stroke:#fb3c54;fill:none;fill-rule:evenodd;stroke-linecap:round;stroke-linejoin:round;stroke-width:2.4" transform="translate(1.026634 .412215)"><path d="m10.9196414 57.4920976c5.9679924 0 10.8050113 4.8381137 10.8050113 10.8061061"/><path d="m.82113268 73.9650046c0 5.5585208 4.50528133 10.0638022 10.06380222 10.0638022"/><path d="m10.9196414 57.293274v-5.5333395l3.9436266-3.9425317c3.030527-3.030527 3.030527-7.944185 0-10.9758069l-.1664162-.2080203-12.37611187 12.3772067c-.91309954.6295351-1.4999357 1.6137994-1.4999357 2.7217811v22.2329886"/><path d="m6.90430258 44.4255774v-38.57462383c0-2.778713 2.12071201-5.0297114 4.73738812-5.0297114h30.4716865c2.6166762 0 4.7373882 2.2509984 4.7373882 5.0297114v18.35176803"/><path d="m22.7886217 8.09582085h8.1784815"/><path d="m73.3813435 39.2571493-15.3836472-15.3836471"/><path d="m42.7465253 38.6616639-13.7030623-13.7030623c-1.4780388-1.4780388-3.8757462-1.4769439-5.3537851 0-1.4780388 1.4791337-1.4780388 3.8757463 0 5.3537852l25.9696897 25.9707845s-5.7194628.0087587-5.7194628.0087587l-3.7673568-3.7673567c-2.8936716-2.8936716-7.587266-2.8936716-10.4820324 0l-.1992615.1587523 11.8210261 11.8210261c.602164.8714955 1.5426346 1.4320554 2.6002535 1.4331503l11.4246927.4324632"/><path d="m57.7653705 23.6428186c-1.3762184-1.3762183-3.6129838-1.3696493-4.9946764.0120433-1.3827874 1.3816926-1.3871668 3.618458-.0120433 4.9935816-1.3751235-1.3751236-3.6118889-1.3696493-4.9946764.0131381-1.3816926 1.3827874-1.3871668 3.618458-.0120432 4.9946764-1.3751236-1.3762184-3.6107942-1.3707442-4.9935816.0109484-1.3827875 1.3827875-1.3882617 3.6184581-.0120433 4.9946765"/><path d="m35.7604379 65.9814052h-13.501611"/></g></svg>