<?xml version="1.0" encoding="UTF-8"?>
<svg width="32px" height="32px" viewBox="0 0 32 32" version="1.1" xmlns="http://www.w3.org/2000/svg" xmlns:xlink="http://www.w3.org/1999/xlink">
    <!-- Generator: Sketch 58 (84663) - https://sketch.com -->
    <title>twitter</title>
    <desc>Created with Sketch.</desc>
    <g id="Symbols" stroke="none" stroke-width="1" fill="none" fill-rule="evenodd">
        <g id="Footer/Desktop-Light-ALT" transform="translate(-900.000000, -410.000000)">
            <rect id="Rectangle-Copy-6" fill="#FFFFFF" transform="translate(652.000000, 256.000000) scale(1, -1) translate(-652.000000, -256.000000) " x="12" y="10" width="1280" height="492"></rect>
            <rect id="Rectangle-Copy-7" fill="#FFFFFF" transform="translate(727.000000, 256.000000) scale(1, -1) translate(-727.000000, -256.000000) " x="87" y="10" width="1280" height="492"></rect>
            <path d="M927.746536,416.78321 C926.827146,417.342311 925.817925,417.738065 924.763555,417.95295 C923.886414,416.985278 922.641893,416.432331 921.335845,416.43 C918.740395,416.43 916.636865,418.58787 916.636865,421.24767 C916.636865,421.625191 916.678335,421.991271 916.756985,422.344481 C912.854515,422.144281 909.392484,420.22522 907.077314,417.31231 C906.658154,418.050708 906.43882,418.885659 906.440964,419.73473 C906.440964,421.40497 907.218884,422.877871 908.478714,423.741591 C907.707944,423.717281 907.117354,423.499921 906.300824,423.140991 L906.300824,423.199621 C906.302162,425.476636 907.891656,427.444296 910.117494,427.924341 C909.438771,428.113351 908.725213,428.140777 908.033984,428.004421 C908.633154,429.919191 910.374894,431.310581 912.428374,431.350621 C910.477853,432.928789 907.970524,433.648118 905.480004,433.344041 C907.615854,434.757144 910.120486,435.510125 912.681485,435.509063 C921.321545,435.509063 926.046266,428.170301 926.046266,421.805371 C926.046266,421.596591 926.041976,421.38781 926.033396,421.18189 C926.956431,420.496795 927.750079,419.652787 928.377166,418.6894 C927.521544,419.078261 926.611606,419.334317 925.678755,419.44873 C926.667354,418.839156 927.401868,417.892315 927.746536,416.78321 Z" id="Path" fill="#012133"></path>
        </g>
    </g>
</svg>