<svg height="72" viewBox="0 0 86 72" width="86" xmlns="http://www.w3.org/2000/svg"><g fill="none" fill-rule="evenodd" transform="translate(-12 -18)"><g stroke="#fb3c54" stroke-linecap="round" stroke-linejoin="round" stroke-width="2.4"><path d="m81.2597228 88.5715416h-63.5194456c-2.3411628 0-4.2402772-2.1071815-4.2402772-4.7048424v-47.033552c0-2.5976609 1.8991144-4.7048424 4.2402772-4.7048424h63.5194456c2.3411628 0 4.2402772 2.1071815 4.2402772 4.7048424v47.033552c0 2.5976609-1.8991144 4.7048424-4.2402772 4.7048424z"/><path d="m24.5420157 26.3430176c0-.8698441 0-.3984871 0-2.1381752 0-2.5976609 1.8991144-4.7048424 4.2402773-4.7048424h63.5194455c2.3411629 0 4.2402772 2.1071815 4.2402772 4.7048424v47.033552c0 2.5976609-1.8991143 4.7048424-4.2402772 4.7048424"/><path d="m14.7920157 47.9678675h60"/><g fill-rule="evenodd" transform="translate(39 58.5)"><path d="m20.8154669 20.8154669-20.4070189-20.40872789"/><path d="m0 7.73316813v-7.72804117l.00512696-.00512696h7.72633219"/></g></g><path d="m21.5343985 41.9823486c1.0769553 0 1.95-.8730447 1.95-1.95 0-1.0769552-.8730447-1.95-1.95-1.95-1.0769552 0-1.95.8730448-1.95 1.95 0 1.0769553.8730448 1.95 1.95 1.95z" fill="#fb3c54" fill-rule="evenodd"/><path d="m27.9920157 41.9823486c1.0769553 0 1.95-.8730447 1.95-1.95 0-1.0769552-.8730447-1.95-1.95-1.95-1.0769552 0-1.95.8730448-1.95 1.95 0 1.0769553.8730448 1.95 1.95 1.95z" fill="#fb3c54" fill-rule="evenodd"/><path d="m34.4496329 41.9823486c1.0769553 0 1.95-.8730447 1.95-1.95 0-1.0769552-.8730447-1.95-1.95-1.95s-1.95.8730448-1.95 1.95c0 1.0769553.8730447 1.95 1.95 1.95z" fill="#fb3c54" fill-rule="evenodd"/></g></svg>